:version 1.10
:name ASF
:units
  mass 1
  length 1
  angle deg
:documentation
  ASF file generated by Kaydara
:root
  axis xyz
  order  tx ty tz rx ry rz
  position 0 0 0
  orientation 0 0 0
:bonedata
  begin
    id 1
    name RightUpLegDummy
    direction -0.718183 -0.695806 0.00816078
    length 4.904
    axis 0 0 0 xyz
  end
  begin
    id 2
    name RightUpLeg
    direction -0.0736652 -0.994202 0.0783343
    length 17.4976
    axis -2.72909 -3.00389 -4.00133 xyz
    dof rx ry rz
  end
  begin
    id 3
    name RightLeg
    direction -0.0389037 -0.994596 -0.0962598
    length 16.5821
    axis 3.95836 -18.5909 -4.46993 xyz
    dof rx ry rz
  end
  begin
    id 4
    name RightFoot
    direction -0.311643 -0.412678 0.855906
    length 3.77069
    axis -1.99483 -18.8351 -3.27644 xyz
    dof rx ry rz
  end
  begin
    id 5
    name RightToes
    direction -0.317852 0.0389852 0.947339
    length 3.85082
    axis -2.00228 -18.1713 -3.25211 xyz
    dof rx ry rz
  end
  begin
    id 6
    name SpineDummy
    direction 8.3039e-015 1 4.44677e-016
    length 4.6813
    axis 0 0 0 xyz
  end
  begin
    id 7
    name Spine
    direction -0.000262373 0.999988 0.00493267
    length 10.1015
    axis -0.00246081 0.00062579 0.0150362 xyz
    dof rx ry rz
  end
  begin
    id 8
    name Spine1
    direction 0 0 0
    length 0
    axis -0.00349562 0.000650293 0.0196666 xyz
    dof rx ry rz
  end
  begin
    id 9
    name HEadDummy
    direction -0.000343232 0.999999 0.00123745
    length 3.43865
    axis -0.00349562 0.000650293 0.0196666 xyz
  end
  begin
    id 10
    name HEad
    direction -0.0461221 0.980933 0.188796
    length 5.12695
    axis -0.00351404 -7.04812 0.0199272 xyz
    dof rx ry rz
  end
  begin
    id 11
    name LeftShoulder1Dummy
    direction 0.998904 -0.0399089 -0.0244534
    length 3.5433
    axis -0.00349562 0.000650293 0.0196666 xyz
  end
  begin
    id 12
    name LeftShoulder1
    direction 0.99951 1.64443e-005 0.0312999
    length 4.05031
    axis -0.00349562 0.000650293 0.0196666 xyz
    dof rx ry rz
  end
  begin
    id 13
    name LeftArm
    direction 0.984791 0.0515299 0.165927
    length 12.9126
    axis -64.823 -10.7743 5.20463 xyz
    dof rx ry rz
  end
  begin
    id 14
    name LeftForeArm
    direction 0.984968 0.0534808 0.16425
    length 10.8596
    axis -30.0462 -7.70601 1.87451 xyz
    dof rx ry rz
  end
  begin
    id 15
    name LeftHand
    direction 0.975871 0.0289682 0.216418
    length 6.62295
    axis -20.1348 -6.98077 1.86072 xyz
    dof rx ry rz
  end
  begin
    id 16
    name RightShoulderDummy
    direction -0.998877 -0.0405946 -0.0244307
    length 3.5433
    axis -0.00349562 0.000650293 0.0196666 xyz
  end
  begin
    id 17
    name RightShoulder
    direction -0.998933 -0.0249743 -0.0388558
    length 4.05031
    axis -0.0205316 -4.02113 1.41395 xyz
    dof rx ry rz
  end
  begin
    id 18
    name RightArm
    direction -0.997559 0.068664 0.0127103
    length 12.9638
    axis -67.3882 1.84188 -6.15987 xyz
    dof rx ry rz
  end
  begin
    id 19
    name RightForeArm
    direction -0.991508 0.0912848 0.0926241
    length 10.8312
    axis -22.1975 3.41087 -4.28711 xyz
    dof rx ry rz
  end
  begin
    id 20
    name RightHand
    direction -0.989262 0.0600788 0.133232
    length 6.57864
    axis -12.2911 2.17515 -4.39675 xyz
    dof rx ry rz
  end
  begin
    id 21
    name LeftUpLegDummy
    direction 0.718183 -0.695806 0.00816078
    length 4.904
    axis 0 0 0 xyz
  end
  begin
    id 22
    name LeftUpLeg
    direction 0.0831398 -0.99469 0.0606531
    length 17.4976
    axis -1.71016 2.29552 4.63832 xyz
    dof rx ry rz
  end
  begin
    id 23
    name LeftLeg
    direction 0.0498442 -0.991778 -0.117862
    length 16.5821
    axis 5.13757 15.5727 5.13348 xyz
    dof rx ry rz
  end
  begin
    id 24
    name LeftFoot
    direction 0.269026 -0.433896 0.85986
    length 3.77069
    axis -0.576502 15.6961 4.10267 xyz
    dof rx ry rz
  end
  begin
    id 25
    name LeftToes
    direction 0.277311 0.0251143 0.960452
    length 3.85048
    axis -0.576502 15.6961 4.10267 xyz
    dof rx ry rz
  end
:hierarchy
  begin
    root RightUpLegDummy SpineDummy LeftUpLegDummy
    RightUpLegDummy RightUpLeg
    RightUpLeg RightLeg
    RightLeg RightFoot
    RightFoot RightToes
    SpineDummy Spine
    Spine Spine1
    Spine1 HEadDummy LeftShoulder1Dummy RightShoulderDummy
    HEadDummy HEad
    LeftShoulder1Dummy LeftShoulder1
    LeftShoulder1 LeftArm
    LeftArm LeftForeArm
    LeftForeArm LeftHand
    RightShoulderDummy RightShoulder
    RightShoulder RightArm
    RightArm RightForeArm
    RightForeArm RightHand
    LeftUpLegDummy LeftUpLeg
    LeftUpLeg LeftLeg
    LeftLeg LeftFoot
    LeftFoot LeftToes
  end

:SAMPLES-PER-SECOND 30
:FULLY-SPECIFIED
:DEGREES
126
root  6.71433 38.2137 -77.9359 170.552 6.52234 177.088
RightUpLeg  -9.706 -6.30287 -6.0694
RightLeg  54.6269 5.76824 -17.088
RightFoot  -2.03524 0.0247297 -0.3365
RightToes  3.97569e-016 -3.18055e-015 -2.98177e-016
Spine  8.44032 1.56317 3.80536
Spine1  5.70075 3.10711 -6.90632
HEad  15.0945 1.16689 -2.23187
LeftShoulder1  -3.88251e-019 9.70628e-020 -3.87848e-018
LeftArm  -24.5517 68.5919 -58.5552
LeftForeArm  -9.18768 -16.8711 0.26088
LeftHand  -0.222675 -1.75151 3.97456
RightShoulder  7.24298 10.1323 34.964
RightArm  17.9879 -40.7144 16.844
RightForeArm  -11.4126 42.0647 -23.8636
RightHand  -1.47761 4.43753 -17.2279
LeftUpLeg  -12.67 7.78701 -8.06321
LeftLeg  22.7118 -2.17281 6.27263
LeftFoot  -2.00432 -0.754777 7.70262
LeftToes  5.30048e-011 -3.04284e-011 -3.73785e-011
127
root  6.70995 38.3323 -78.5817 170.695 5.23476 177.933
RightUpLeg  -10.9355 -7.68629 -4.20117
RightLeg  53.6487 5.22558 -17.3445
RightFoot  -5.43714 0.133987 -1.72408
RightToes  3.97569e-016 -3.18055e-015 -2.98177e-016
Spine  8.41137 1.30288 2.54531
Spine1  5.84837 2.3333 -4.61778
HEad  13.9146 0.986739 -2.21533
LeftShoulder1  -3.88251e-019 9.70628e-020 -3.87848e-018
LeftArm  -21.2125 67.0169 -55.1031
LeftForeArm  -7.57182 -19.2913 1.13862
LeftHand  -0.154866 -2.14984 2.67387
RightShoulder  7.19432 10.1042 34.7748
RightArm  18.0066 -40.6969 15.4948
RightForeArm  -6.16598 37.2469 -20.4732
RightHand  -1.15902 4.19137 -13.9201
LeftUpLeg  -11.9108 5.7339 -7.41807
LeftLeg  23.0474 -1.68349 6.58333
LeftFoot  -2.86516 -0.619279 6.82915
LeftToes  5.30048e-011 -3.04284e-011 -3.73785e-011
128
root  6.77826 38.4277 -79.1773 171.164 4.18228 178.323
RightUpLeg  -11.8719 -8.26804 -2.59544
RightLeg  50.3308 5.90666 -14.4473
RightFoot  -8.53958 0.0689433 -1.09622
RightToes  3.97569e-016 -3.18055e-015 -2.98177e-016
Spine  8.1147 1.35047 0.786687
Spine1  5.70474 1.85504 -2.67333
HEad  13.3297 0.626684 -2.16149
LeftShoulder1  -3.88251e-019 9.70628e-020 -3.87848e-018
LeftArm  -17.5817 65.0599 -51.5231
LeftForeArm  -6.98304 -21.199 2.02975
LeftHand  -0.188502 -2.31871 3.15686
RightShoulder  7.10687 10.0681 34.4007
RightArm  18.1021 -41.1636 13.8921
RightForeArm  -2.21349 31.5787 -17.0084
RightHand  -0.961143 3.74842 -12.1282
LeftUpLeg  -11.4453 4.34074 -7.14446
LeftLeg  23.122 -1.46108 6.70758
LeftFoot  -3.56447 -0.543191 6.40057
LeftToes  5.30048e-011 -3.04284e-011 -3.73785e-011
129
root  6.86561 38.5851 -79.7371 171.904 3.4919 178.451
RightUpLeg  -12.3194 -8.66549 -1.25484
RightLeg  43.6158 7.19208 -10.1241
RightFoot  -10.2193 0.0312918 -0.158415
RightToes  3.97569e-016 -3.18055e-015 -2.98177e-016
Spine  7.52703 1.38182 -0.387264
Spine1  5.36783 1.66836 -1.79653
HEad  13.0474 0.288536 -1.95942
LeftShoulder1  -3.88251e-019 9.70628e-020 -3.87848e-018
LeftArm  -13.0804 62.8606 -47.2237
LeftForeArm  -8.70888 -22.7482 2.65063
LeftHand  -0.287707 -2.50705 4.62797
RightShoulder  7.02987 10.0418 34.0567
RightArm  18.2847 -41.8403 12.3007
RightForeArm  -0.425436 25.4448 -13.595
RightHand  -0.919238 3.22467 -12.2735
LeftUpLeg  -10.7013 3.25416 -7.08993
LeftLeg  22.0366 -1.0078 6.62946
LeftFoot  -3.95623 -0.520557 6.37637
LeftToes  5.30048e-011 -3.04284e-011 -3.73785e-011
130
root  6.95385 38.8184 -80.2506 172.458 2.60783 178.562
RightUpLeg  -11.2201 -9.9066 -0.260199
RightLeg  33.3687 8.56463 -6.21464
RightFoot  -9.85791 0.0263479 0.0504879
RightToes  3.97569e-016 -3.18055e-015 -2.98177e-016
Spine  6.9428 1.06813 -0.744317
Spine1  5.2176 1.37585 -1.54295
HEad  12.7424 0.0560391 -1.75141
LeftShoulder1  -3.88251e-019 9.70628e-020 -3.87848e-018
LeftArm  -8.1752 60.3128 -42.7135
LeftForeArm  -11.941 -23.9596 3.00165
LeftHand  -0.41608 -2.85086 6.34892
RightShoulder  6.94292 9.99203 33.7109
RightArm  16.0273 -42.5975 10.9134
RightForeArm  2.04114 19.6129 -9.83721
RightHand  -0.898511 2.70945 -12.7278
LeftUpLeg  -9.36304 1.74301 -7.04164
LeftLeg  19.9404 -0.363007 6.34327
LeftFoot  -3.7062 -0.515073 6.14935
LeftToes  5.30048e-011 -3.04284e-011 -3.73785e-011
131
root  7.06633 38.9987 -80.7295 172.677 1.3988 178.421
RightUpLeg  -8.93937 -11.3204 0.0851397
RightLeg  23.5064 9.25629 -4.07857
RightFoot  -7.53614 0.0805629 -1.15386
RightToes  3.97569e-016 -3.18055e-015 -2.98177e-016
Spine  6.50943 0.588496 -1.06424
Spine1  5.31757 0.93481 -1.47615
HEad  12.4663 0.065454 -1.96645
LeftShoulder1  -3.88251e-019 9.70628e-020 -3.87848e-018
LeftArm  -3.30733 57.495 -38.7637
LeftForeArm  -15.3285 -24.9125 3.19291
LeftHand  -0.568942 -3.19463 8.26568
RightShoulder  6.91345 9.96941 33.6062
RightArm  9.89982 -43.4731 8.91702
RightForeArm  7.33186 15.0072 -6.06992
RightHand  -0.76709 1.7999 -12.1892
LeftUpLeg  -7.91933 0.0379098 -7.22864
LeftLeg  18.1538 0.156086 6.04402
LeftFoot  -3.35193 -0.503129 5.79389
LeftToes  5.30048e-011 -3.04284e-011 -3.73785e-011
132
root  7.19506 39.1226 -81.1936 172.935 0.53833 178.092
RightUpLeg  -7.38621 -10.8477 0.0495599
RightLeg  18.9061 8.10066 -3.93449
RightFoot  -5.36343 0.221734 -3.09863
RightToes  3.97569e-016 -3.18055e-015 -2.98177e-016
Spine  5.99967 0.333718 -1.2364
Spine1  5.3652 0.754481 -1.60024
HEad  11.7057 -0.00709059 -2.71401
LeftShoulder1  -3.88251e-019 9.70628e-020 -3.87848e-018
LeftArm  0.916167 54.7782 -35.987
LeftForeArm  -18.0532 -25.658 3.34009
LeftHand  -0.736475 -3.53932 10.2212
RightShoulder  7.04401 10.0589 34.0913
RightArm  7.9612 -44.3441 5.91874
RightForeArm  7.53405 11.3735 -4.8388
RightHand  -0.582684 0.353299 -11.5424
LeftUpLeg  -6.6667 -1.2788 -7.52556
LeftLeg  16.7064 0.734441 5.77184
LeftFoot  -3.26981 -0.488411 5.57732
LeftToes  5.30048e-011 -3.04284e-011 -3.73785e-011
133
root  7.31823 39.2553 -81.6195 173.436 0.46666 177.883
RightUpLeg  -6.90239 -9.05019 0.102339
RightLeg  18.5248 6.31016 -4.5247
RightFoot  -4.81724 0.290638 -3.8332
RightToes  3.97569e-016 -3.18055e-015 -2.98177e-016
Spine  5.33992 0.407313 -0.233485
Spine1  5.21657 1.20087 -3.07217
HEad  11.5104 -0.236775 -3.66941
LeftShoulder1  -3.88251e-019 9.70628e-020 -3.87848e-018
LeftArm  3.33634 52.3836 -34.5839
LeftForeArm  -19.122 -26.1489 3.53644
LeftHand  -0.884323 -4.01751 11.6002
RightShoulder  7.35008 10.2562 35.2374
RightArm  8.71602 -45.2034 2.14042
RightForeArm  4.89053 9.22201 -4.48573
RightHand  -0.470246 -1.00656 -12.0536
LeftUpLeg  -5.5945 -2.12804 -7.55629
LeftLeg  15.0584 1.58754 5.40908
LeftFoot  -3.21893 -0.465596 5.28751
LeftToes  5.30048e-011 -3.04284e-011 -3.73785e-011
134
root  7.42884 39.4317 -82.0039 173.923 0.776978 178.11
RightUpLeg  -5.81833 -8.27308 0.420001
RightLeg  17.1724 5.69021 -4.22527
RightFoot  -4.68708 0.255563 -3.31433
RightToes  3.97569e-016 -3.18055e-015 -2.98177e-016
Spine  4.86052 0.519984 1.36744
Spine1  4.82016 1.68062 -4.77409
HEad  11.4518 -0.295418 -4.72389
LeftShoulder1  -3.88251e-019 9.70628e-020 -3.87848e-018
LeftArm  3.27161 51.4058 -34.4605
LeftForeArm  -18.9469 -26.8802 4.09704
LeftHand  -0.980365 -4.40396 12.3152
RightShoulder  7.56329 10.3996 36.0039
RightArm  9.69922 -46.3415 -0.986547
RightForeArm  2.80072 8.0606 -4.46828
RightHand  -0.438721 -1.68834 -13.2051
LeftUpLeg  -4.42035 -2.675 -7.01936
LeftLeg  13.0821 2.36145 4.80555
LeftFoot  -2.87803 -0.443167 4.87082
LeftToes  5.30048e-011 -3.04284e-011 -3.73785e-011
135
root  7.53215 39.6614 -82.389 174.251 0.921921 178.761
RightUpLeg  -3.47236 -6.43266 0.80194
RightLeg  13.3592 3.61512 -2.62253
RightFoot  -3.51486 0.277798 -3.19972
RightToes  3.97569e-016 -3.18055e-015 -2.98177e-016
Spine  3.92001 0.506722 2.33495
Spine1  5.17163 1.67399 -4.80411
HEad  10.9651 -0.0452258 -5.70124
LeftShoulder1  -3.88251e-019 9.70628e-020 -3.87848e-018
LeftArm  1.37077 52.2185 -35.5377
LeftForeArm  -19.6306 -28.2662 4.9185
LeftHand  -1.05512 -4.4288 13.1925
RightShoulder  7.50895 10.3761 35.7795
RightArm  10.3888 -47.6685 -2.73345
RightForeArm  2.12461 7.71517 -4.7214
RightHand  -0.439152 -1.86576 -13.871
LeftUpLeg  -2.74545 -2.91576 -6.02893
LeftLeg  10.4148 2.65751 3.86668
LeftFoot  -2.12125 -0.456594 4.69121
LeftToes  5.30048e-011 -3.04284e-011 -3.73785e-011
